<?xml version="1.0" encoding="utf-8"?>
<!-- Generator: Adobe Illustrator 25.1.0, SVG Export Plug-In . SVG Version: 6.00 Build 0)  -->
<svg version="1.1" id="Layer_1" xmlns="http://www.w3.org/2000/svg" xmlns:xlink="http://www.w3.org/1999/xlink" x="0px" y="0px"
	 viewBox="0 0 100 100" style="enable-background:new 0 0 100 100;" xml:space="preserve">
<style type="text/css">
	.st0{fill:#B1B1B1;}
</style>
<g>
	<path class="st0" d="M40.3,51.4c-10.1,1.7-12.8,6.1-14,12.2c-0.6,3.2-0.9,8.7-0.9,8.7c0,4.8,7.8,6.1,7.8,6.1s6.8,1.7,16.7,1.7l0,0
		c9.8,0,16.7-1.7,16.7-1.7s7.8-1.3,7.8-6.1c0,0-0.2-5.6-0.9-8.7c-1.2-6.1-3.8-10.5-14-12.2c0,0-3.7,3.7-9.7,3.6
		C44,55,40.3,51.4,40.3,51.4z"/>
	<path class="st0" d="M63.3,33.3c0,8.9-4.4,18.8-13.3,18.8s-13.3-9.8-13.3-18.8S40.3,19.8,50,19.8S63.3,24.4,63.3,33.3z"/>
</g>
</svg>
